<?xml version="1.0" standalone="no"?>
<!DOCTYPE svg PUBLIC "-//W3C//DTD SVG 20010904//EN"
 "http://www.w3.org/TR/2001/REC-SVG-20010904/DTD/svg10.dtd">
<svg version="1.0" xmlns="http://www.w3.org/2000/svg"
 width="768.000000pt" height="594.000000pt" viewBox="0 0 768.000000 594.000000"
 preserveAspectRatio="xMidYMid meet">

<g transform="translate(0.000000,594.000000) scale(0.100000,-0.100000)"
fill="#000000" stroke="none">
<path d="M25 5858 c-64 -273 1 -495 201 -690 79 -77 92 -87 195 -156 146 -98
355 -202 714 -357 333 -144 655 -299 643 -310 -6 -7 -279 54 -431 95 -221 60
-380 120 -572 215 -262 129 -472 280 -596 430 -30 36 -57 65 -61 65 -15 0 -17
-59 -3 -113 41 -156 190 -358 384 -519 343 -284 787 -464 1316 -533 140 -18
422 -36 548 -34 l89 1 40 -38 c62 -61 183 -203 332 -394 76 -96 142 -176 147
-178 5 -2 9 28 9 66 0 63 2 71 20 74 17 3 6 25 -83 169 -120 195 -200 309
-253 363 -28 29 -91 65 -234 133 -279 134 -324 158 -430 228 -161 107 -259
210 -320 336 -22 45 -24 46 -129 84 -288 103 -593 252 -796 386 -277 184 -456
364 -633 634 -35 55 -68 104 -72 108 -5 5 -16 -24 -25 -65z"/>
<path d="M7604 5886 c-281 -475 -731 -813 -1430 -1074 l-152 -56 -25 -51 c-62
-126 -183 -248 -347 -349 -105 -65 -154 -90 -400 -209 -133 -63 -207 -105
-232 -130 -60 -59 -192 -255 -337 -499 -22 -38 -22 -38 -2 -38 18 0 20 -7 23
-76 l3 -76 64 83 c149 193 301 378 377 458 l81 85 84 -2 c129 -4 438 16 594
39 402 58 745 176 1039 357 288 178 513 414 603 634 25 61 36 149 20 164 -4 4
-24 -12 -44 -37 -227 -275 -651 -517 -1153 -659 -144 -40 -461 -112 -468 -105
-12 12 256 141 655 315 530 232 719 339 892 504 186 178 259 392 217 632 -8
50 -19 102 -24 115 -9 23 -10 22 -38 -25z"/>
<path d="M1650 4909 c1 -27 59 -160 98 -227 109 -184 281 -311 623 -460 180
-80 289 -135 328 -168 70 -59 213 -271 332 -492 l44 -82 45 6 c60 8 170 31
175 36 2 2 -5 40 -16 83 -60 241 -167 490 -259 602 -27 34 -80 83 -117 110
-135 96 -234 135 -769 303 -229 72 -379 159 -456 264 -15 21 -28 33 -28 25z"/>
<path d="M5992 4874 c-90 -120 -229 -191 -592 -300 -333 -100 -456 -149 -588
-233 -125 -80 -192 -163 -278 -346 -46 -96 -104 -266 -130 -375 -8 -36 -17
-72 -19 -81 -4 -13 13 -19 92 -34 54 -9 106 -16 116 -14 12 3 47 55 94 139 91
164 185 306 252 382 55 61 144 112 356 203 371 160 541 291 658 506 33 59 82
188 75 194 -2 2 -18 -17 -36 -41z"/>
<path d="M3637 4230 c-31 -9 -91 -57 -80 -63 5 -2 24 -7 44 -11 63 -11 65 -23
29 -133 -36 -108 -109 -264 -160 -339 -18 -27 -56 -73 -84 -102 -49 -52 -50
-53 -21 -46 74 17 253 87 359 140 l115 58 118 -57 c106 -50 351 -142 359 -134
2 2 -17 27 -41 57 -55 67 -101 152 -114 211 -21 94 23 169 100 169 21 0 39 4
39 9 0 16 -72 70 -134 101 -35 18 -79 51 -105 81 -34 37 -57 53 -86 59 -49 12
-300 11 -338 0z m363 -130 c0 -21 -33 -29 -45 -10 -9 15 4 30 26 30 12 0 19
-7 19 -20z"/>
<path d="M3745 3635 c-195 -106 -499 -195 -667 -195 -46 0 -47 -1 -54 -36 -9
-50 12 -341 36 -481 66 -386 212 -702 429 -923 127 -131 316 -258 364 -246 13
3 70 37 129 75 413 273 648 772 665 1414 l6 197 -36 0 c-65 0 -261 39 -382 75
-66 20 -178 64 -250 97 -71 33 -137 61 -145 63 -8 2 -51 -17 -95 -40z m-336
-340 c33 -17 48 -50 54 -122 l4 -53 -53 0 -53 0 -3 43 c-4 55 -22 55 -26 0 -3
-39 1 -47 46 -95 71 -76 85 -108 90 -209 7 -131 -31 -189 -122 -189 -85 0
-115 39 -123 162 l-6 78 56 0 56 0 3 -65 c4 -77 22 -91 26 -20 3 54 -3 66 -75
154 -86 105 -80 285 11 321 33 14 84 11 115 -5z m359 -62 l3 -63 -41 0 -41 0
3 -52 c3 -52 4 -53 36 -56 l32 -3 0 -60 0 -59 -35 0 -35 0 0 -65 0 -65 40 0
40 0 0 -65 0 -66 -92 3 -93 3 -3 295 c-1 162 0 301 3 308 3 9 27 12 92 10 l88
-3 3 -62z m215 -58 c4 -66 11 -156 15 -200 8 -79 8 -78 15 80 5 88 10 179 14
203 l5 42 49 0 c46 0 49 -1 49 -26 0 -39 -50 -567 -55 -581 -6 -17 -141 -18
-151 -2 -7 12 -53 502 -54 572 l0 38 53 -3 52 -3 8 -120z m447 60 l0 -65 -34
0 c-19 0 -37 -3 -39 -7 -2 -5 -2 -29 1 -55 4 -44 6 -47 35 -50 32 -3 32 -4 32
-58 0 -55 0 -55 -32 -58 l-33 -3 0 -64 0 -64 38 -3 37 -3 0 -60 0 -60 -95 0
-95 0 -3 295 c-1 162 0 300 3 307 3 9 31 13 95 13 l90 0 0 -65z"/>
<path d="M901 3589 c61 -117 193 -250 299 -301 111 -55 192 -71 345 -72 229 0
405 46 876 227 108 42 224 81 258 88 33 7 61 16 61 19 0 3 -15 20 -32 37 l-33
32 -195 -19 c-342 -33 -538 -43 -835 -43 -425 -1 -594 23 -779 111 -5 3 11
-33 35 -79z"/>
<path d="M6770 3649 c-145 -76 -496 -109 -958 -90 -260 11 -534 30 -726 52
l-89 10 -28 -33 c-16 -18 -28 -35 -29 -38 0 -3 33 -13 74 -23 40 -9 149 -47
241 -82 328 -127 487 -178 660 -211 124 -24 326 -24 420 0 200 52 358 184 459
384 29 57 28 59 -24 31z"/>
<path d="M2682 3458 c-33 -24 -99 -73 -148 -110 -195 -148 -385 -221 -708
-273 l-39 -6 33 -34 c18 -18 60 -46 94 -61 115 -53 256 -35 438 56 98 49 185
106 371 244 118 88 145 112 137 125 -20 38 -83 101 -100 101 -10 0 -45 -19
-78 -42z"/>
<path d="M4865 3458 c-64 -75 -72 -62 111 -198 317 -235 475 -312 649 -314 71
-1 88 3 145 31 36 18 78 45 94 62 l28 30 -38 6 c-359 57 -545 136 -786 332
-81 65 -126 93 -152 93 -8 0 -31 -19 -51 -42z"/>
<path d="M2849 3313 c-20 -21 -58 -67 -86 -103 -105 -134 -254 -256 -391 -319
-28 -14 -52 -28 -52 -31 0 -13 116 -19 185 -9 148 20 259 99 390 274 47 63 85
117 85 120 0 13 -75 104 -85 105 -6 0 -27 -17 -46 -37z"/>
<path d="M4738 3301 c-44 -56 -45 -63 -19 -93 11 -13 51 -65 91 -116 113 -148
225 -222 365 -241 69 -10 185 -4 185 9 0 3 -24 17 -52 31 -137 63 -286 185
-391 319 -65 84 -118 140 -132 140 -5 -1 -27 -23 -47 -49z"/>
<path d="M2981 3097 c-2 -52 -50 -134 -116 -198 -35 -35 -62 -67 -59 -71 7
-12 61 -10 106 4 21 6 54 25 73 42 l34 31 -15 95 c-17 116 -21 133 -23 97z"/>
<path d="M4685 3055 c-4 -33 -11 -80 -16 -105 -8 -43 -7 -46 25 -77 19 -17 51
-36 73 -42 45 -13 100 -14 107 -3 3 5 -19 31 -48 59 -67 63 -106 121 -121 181
l-13 47 -7 -60z"/>
<path d="M3609 1533 c-139 -353 -151 -414 -98 -498 23 -37 33 -45 39 -34 8 14
190 638 190 651 0 7 -53 38 -64 38 -2 0 -32 -71 -67 -157z"/>
<path d="M3968 1674 c-16 -8 -28 -17 -28 -20 0 -6 164 -576 184 -638 l12 -40
34 59 c42 74 42 112 2 230 -29 88 -127 343 -153 398 -14 31 -15 31 -51 11z"/>
<path d="M3837 1395 c-11 -34 -55 -268 -88 -466 l-32 -189 27 -38 c14 -21 42
-53 61 -72 40 -38 43 -37 107 43 49 63 49 78 -2 372 -59 344 -65 373 -73 350z"/>
<path d="M3240 533 l-13 -43 -51 0 -51 -1 24 -20 c13 -11 31 -24 40 -29 15 -8
15 -13 0 -54 -9 -25 -15 -46 -12 -46 2 0 20 11 40 25 20 13 41 21 47 18 6 -3
23 -15 39 -25 30 -21 32 -16 16 31 -11 30 -9 35 22 67 l33 34 -47 0 c-31 0
-47 4 -47 13 -1 6 -7 26 -14 42 l-13 30 -13 -42z"/>
<path d="M3541 545 c-6 -16 -14 -36 -16 -42 -3 -8 -23 -13 -52 -13 l-48 0 39
-33 39 -34 -16 -41 c-9 -23 -14 -42 -10 -42 3 0 21 12 40 26 l34 26 37 -26
c20 -14 38 -24 40 -22 2 2 -2 22 -9 44 -11 39 -11 41 22 71 l34 30 -47 1 c-46
0 -47 1 -61 43 l-15 42 -11 -30z"/>
<path d="M3831 545 c-6 -16 -14 -36 -16 -42 -3 -8 -23 -13 -52 -13 l-48 -1 38
-32 38 -33 -15 -42 c-16 -46 -16 -46 37 -9 l28 19 37 -26 c20 -14 37 -24 38
-23 1 1 -2 21 -8 43 -11 40 -10 42 23 72 l34 31 -47 1 c-46 0 -47 1 -61 43
l-15 42 -11 -30z"/>
<path d="M4121 545 c-6 -16 -14 -36 -16 -42 -3 -8 -23 -13 -52 -13 l-48 0 38
-33 38 -32 -15 -42 c-8 -24 -12 -43 -9 -43 3 0 21 12 40 26 l34 26 37 -26 c20
-14 37 -24 38 -23 2 2 -2 21 -8 44 -10 40 -9 43 23 72 l34 30 -47 1 c-46 0
-47 1 -61 43 l-15 42 -11 -30z"/>
<path d="M4410 533 c-13 -42 -14 -43 -57 -43 -51 0 -54 -8 -13 -35 34 -23 36
-32 16 -80 -8 -19 -13 -35 -10 -35 3 0 21 11 41 25 20 13 41 21 47 18 6 -3 23
-15 39 -25 30 -21 32 -16 16 31 -11 30 -9 35 22 67 l33 34 -47 0 c-31 0 -47 4
-47 13 -1 6 -7 26 -14 42 l-13 30 -13 -42z"/>
<path d="M2307 282 c-38 -42 -13 -90 56 -106 36 -8 39 -46 3 -46 -13 0 -26 7
-30 15 -7 20 -56 20 -56 0 0 -51 107 -77 145 -35 40 44 16 101 -47 115 -33 8
-44 23 -29 38 7 7 16 6 29 -6 20 -19 62 -23 62 -7 0 6 -9 19 -20 30 -26 26
-90 27 -113 2z"/>
<path d="M2480 195 l0 -105 75 0 c73 0 75 1 75 25 0 23 -3 25 -51 25 -43 0
-50 3 -47 17 2 13 15 19 46 21 37 3 42 6 42 28 0 22 -4 24 -45 24 -25 0 -45 5
-45 10 0 6 23 10 50 10 47 0 50 2 50 25 0 24 -2 25 -75 25 l-75 0 0 -105z"/>
<path d="M2693 276 c-25 -21 -28 -31 -28 -81 0 -50 3 -60 28 -81 33 -28 83
-32 127 -9 26 14 30 21 30 60 l0 45 -45 0 c-41 0 -45 -2 -45 -25 0 -18 5 -25
20 -25 27 0 26 -16 -2 -23 -39 -11 -58 9 -58 59 0 37 4 46 23 53 12 5 29 5 39
0 25 -13 58 -11 58 4 0 49 -99 64 -147 23z"/>
<path d="M2890 215 c0 -104 14 -125 85 -125 69 0 85 24 85 127 0 82 0 83 -25
83 -24 0 -25 -2 -25 -74 0 -83 -13 -106 -49 -86 -18 9 -21 20 -21 85 0 73 -1
75 -25 75 -25 0 -25 -1 -25 -85z"/>
<path d="M3100 195 l0 -105 30 0 c29 0 30 2 30 46 0 52 11 51 40 -7 17 -32 26
-39 50 -39 36 0 37 4 6 54 -23 38 -23 39 -5 57 25 25 24 54 -1 79 -16 16 -33
20 -85 20 l-65 0 0 -105z m105 40 c0 -13 -8 -21 -22 -23 -19 -3 -23 1 -23 23
0 22 4 26 23 23 14 -2 22 -10 22 -23z"/>
<path d="M3310 195 l0 -105 25 0 25 0 0 105 0 105 -25 0 -25 0 0 -105z"/>
<path d="M3410 195 l0 -105 48 0 c70 0 89 8 107 47 24 49 15 111 -20 140 -20
18 -39 23 -81 23 l-54 0 0 -105z m105 0 c0 -47 -2 -50 -27 -53 -28 -3 -28 -3
-28 53 0 56 0 56 28 53 25 -3 27 -6 27 -53z"/>
<path d="M3645 288 c-10 -27 -65 -192 -65 -195 0 -2 13 -3 29 -3 20 0 30 6 34
20 4 15 14 20 37 20 23 0 33 -5 37 -20 4 -14 14 -20 33 -20 l29 0 -36 105
c-34 102 -36 105 -64 105 -16 0 -32 -6 -34 -12z m50 -85 c5 -19 3 -23 -15 -23
-16 0 -20 4 -16 16 3 9 6 23 6 32 0 21 15 5 25 -25z"/>
<path d="M3800 195 l0 -105 59 0 c74 0 100 19 108 77 12 94 -19 133 -107 133
l-60 0 0 -105z m112 30 c16 -35 0 -79 -30 -83 -20 -3 -22 0 -22 52 0 50 2 56
20 56 12 0 25 -10 32 -25z"/>
<path d="M4090 195 l0 -105 30 0 c27 0 30 3 30 33 0 29 3 32 31 33 44 2 64 26
63 76 -2 54 -22 68 -96 68 l-58 0 0 -105z m98 33 c-5 -34 -38 -37 -38 -4 0 20
5 26 21 26 15 0 20 -5 17 -22z"/>
<path d="M4280 194 l0 -105 28 3 c24 3 28 8 32 47 5 48 12 46 44 -17 13 -25
23 -32 46 -32 28 0 29 1 19 27 -6 16 -18 36 -26 46 -15 16 -15 18 0 30 28 21
31 63 8 86 -17 17 -33 21 -86 21 l-65 0 0 -106z m105 41 c0 -13 -8 -21 -22
-23 -19 -3 -23 1 -23 23 0 22 4 26 23 23 14 -2 22 -10 22 -23z"/>
<path d="M4490 195 l0 -105 25 0 25 0 0 105 0 105 -25 0 -25 0 0 -105z"/>
<path d="M4571 288 c0 -7 15 -53 32 -103 30 -85 34 -90 62 -93 30 -3 31 -2 63
96 17 54 32 101 32 105 0 4 -11 7 -24 7 -21 0 -27 -8 -41 -57 -29 -105 -28
-105 -53 -12 -15 57 -20 64 -45 67 -17 2 -27 -1 -26 -10z"/>
<path d="M4792 202 c-18 -54 -32 -101 -32 -105 0 -4 12 -7 26 -7 17 0 28 6 31
20 8 28 68 28 76 0 3 -14 14 -20 31 -20 14 0 26 3 26 7 0 4 -14 51 -32 105
-32 96 -33 98 -63 98 -30 0 -31 -2 -63 -98z m78 -4 c0 -10 -7 -18 -15 -18 -16
0 -19 17 -9 45 5 13 8 14 15 3 5 -7 9 -21 9 -30z"/>
<path d="M4980 195 l0 -105 54 0 c44 0 61 5 83 24 25 22 28 31 27 81 0 50 -4
61 -28 81 -21 19 -39 24 -82 24 l-54 0 0 -105z m106 31 c3 -13 4 -37 2 -52 -2
-23 -9 -30 -30 -32 -28 -3 -28 -2 -28 52 0 53 1 56 25 56 18 0 26 -7 31 -24z"/>
<path d="M5215 288 c-10 -27 -65 -192 -65 -195 0 -2 11 -3 25 -3 14 0 29 8 35
20 15 27 66 27 75 0 4 -14 15 -20 35 -20 l29 0 -36 105 c-34 102 -36 105 -64
105 -16 0 -32 -6 -34 -12z m47 -83 c4 -19 1 -25 -13 -25 -21 0 -22 4 -13 37 8
28 20 22 26 -12z"/>
</g>
</svg>
